PathFileType	4	(X/Y/Z)	C:\Users\Basilio\Documents\Thesis Gigler\squatting_fais\c3dfiles\075\SLS_front_pre1\markers_experimental.trc
DataRate	CameraRate	NumFrames	NumMarkers	Units	OrigDataRate	OrigDataStartFrame	OrigNumFrames
200.000000	200.000000	4	61	mm	200.000000	0	1249
Frame#	Time	FHD			LBHD			C7			T10			CLAV			LSHO			LUUPA			LMUPA			LDUPA			LLEP			LMEP			LUL			LRFIN			RSHO			RUPA1			RMUPA			RDUPA			RLEP			RMEP			RRAD			RUL			RUFIN			LASI			RASI			USACR			LSACR			RSACR			LTHI1			LTHI2			LTHI3			LTHI4			LLFC			LMFC			LTIB1			LTIB2			LTIB3			LTIB4			LLMAL			LMMAL			LHEE			LMT1			LMT2			LMT5			RTHI			RTHI2			RTHI3			RTHI4			RLFC			RMFC			RTIB1			RTIB2			RTIB3			RTIB4			RLMAL			RMMAL			RHEE			RMT1			RMT2			RMT5			LRAD			RBHD			
		X1	Y1	Z1	X2	Y2	Z2	X3	Y3	Z3	X4	Y4	Z4	X5	Y5	Z5	X6	Y6	Z6	X7	Y7	Z7	X8	Y8	Z8	X9	Y9	Z9	X10	Y10	Z10	X11	Y11	Z11	X12	Y12	Z12	X13	Y13	Z13	X14	Y14	Z14	X15	Y15	Z15	X16	Y16	Z16	X17	Y17	Z17	X18	Y18	Z18	X19	Y19	Z19	X20	Y20	Z20	X21	Y21	Z21	X22	Y22	Z22	X23	Y23	Z23	X24	Y24	Z24	X25	Y25	Z25	X26	Y26	Z26	X27	Y27	Z27	X28	Y28	Z28	X29	Y29	Z29	X30	Y30	Z30	X31	Y31	Z31	X32	Y32	Z32	X33	Y33	Z33	X34	Y34	Z34	X35	Y35	Z35	X36	Y36	Z36	X37	Y37	Z37	X38	Y38	Z38	X39	Y39	Z39	X40	Y40	Z40	X41	Y41	Z41	X42	Y42	Z42	X43	Y43	Z43	X44	Y44	Z44	X45	Y45	Z45	X46	Y46	Z46	X47	Y47	Z47	X48	Y48	Z48	X49	Y49	Z49	X50	Y50	Z50	X51	Y51	Z51	X52	Y52	Z52	X53	Y53	Z53	X54	Y54	Z54	X55	Y55	Z55	X56	Y56	Z56	X57	Y57	Z57	X58	Y58	Z58	X59	Y59	Z59	X60	Y60	Z60	X61	Y61	Z61	

1	0	-287.5760192871094	1708.106201171875	-785.459899902344	-427.7940673828126	1593.339233398438	-867.4272460937502	-470.0951538085939	1465.635498046875	-811.6753540039065	-451.7589416503907	1141.241821289063	-814.8873291015627	-323.9995117187501	1416.108276367188	-799.9521484375002	-349.5026245117188	1445.09326171875	-957.7998046875002	-275.9123535156251	1260.900756835938	-1065.96142578125	-233.4609985351563	1258.86328125	-1039.512817382813	-229.5665435791016	1209.267822265625	-1074.634643554688	-171.2628021240235	1145.4287109375	-1066.636108398438	-237.2663116455079	1101.918701171875	-1022.319519042969	-11.64120292663574	1051.497436523438	-894.4919433593752	1.973470211029053	1092.870239257813	-795.958679199219	-373.3171997070313	1436.172119140625	-643.5400390625001	-318.0966186523438	1246.840454101563	-531.9587402343751	-272.5556335449219	1241.44140625	-549.8369750976564	-278.2602844238282	1190.039306640625	-517.5555419921876	-229.8713989257813	1136.904418945313	-516.0418090820314	-270.1194763183594	1081.223754882813	-561.5116577148439	-54.34608840942384	1100.69091796875	-728.5974121093751	-31.76691818237305	1062.849731445313	-664.6976928710939	26.83787727355958	1100.796264648438	-754.4192504882814	-271.0468750000001	985.0444335937502	-942.0303344726565	-272.1714782714844	989.713562011719	-685.9417114257814	-433.4690246582032	1044.241577148438	-818.4987792968752	-436.7762451171876	1012.528137207031	-845.5208129882815	-438.0004882812501	1013.376708984375	-788.3293457031252	-299.1070556640626	740.4956054687501	-1018.636596679688	-260.5107727050782	664.8717651367189	-1021.486694335938	-215.0748748779297	673.8264160156251	-1005.467956542969	-282.3468017578126	609.2158813476564	-1014.178894042969	-283.3335266113282	501.0626831054689	-1009.184875488281	-239.7278594970704	483.9147033691407	-887.0959472656252	-238.6441802978516	373.7048034667969	-979.6989746093752	-304.2815246582032	342.7154846191407	-1028.353759765625	-264.1744384765626	330.8555603027344	-1009.958984375	-277.5169677734376	251.7065734863282	-981.355651855469	-372.0422058105469	123.7994842529297	-999.1145019531252	-338.8990783691407	131.1584777832032	-919.2338867187502	-429.0911254882814	94.90715789794923	-955.939147949219	-223.6461029052735	50.69174575805665	-935.3081054687502	-221.0191192626954	54.87512588500978	-984.3220214843752	-262.9709167480469	43.37726211547852	-1035.740356445313	-327.6394958496094	779.9268188476565	-633.4332885742189	-288.1817016601563	728.7004394531251	-640.8716430664064	-257.2750549316407	736.7042236328126	-651.2081298828126	-313.3533325195313	647.7600097656251	-656.3165283203126	-326.4019775390626	495.3520812988282	-697.4384765625001	-286.5400390625001	497.3485107421876	-820.2860107421877	-284.0823059082032	350.3316955566407	-773.703308105469	-343.0297241210938	272.2927246093751	-724.9291381835939	-305.1612243652344	267.2726135253907	-755.6105346679689	-318.3864440917969	227.1193847656251	-796.765319824219	-398.8985290527345	111.8594131469727	-774.3548583984377	-362.0598449707032	138.7377166748047	-850.6463623046877	-449.0137329101564	94.06309509277345	-835.7218017578127	-242.9794006347657	59.42440032958986	-823.6655883789065	-249.4543151855469	55.08943939208986	-781.6424560546877	-291.9065551757813	33.67802047729493	-734.6742553710939	nan	nan	nan	nan	nan	nan	
2	0.005	-287.5041503906251	1708.193237304688	-785.3300781250002	-427.6754760742189	1593.370849609375	-867.2624511718752	-469.9968872070314	1465.6240234375	-811.510681152344	-451.6609191894532	1141.279418945313	-814.7815551757815	-323.8234252929688	1416.118286132813	-799.7473144531252	-349.3497314453126	1445.109008789063	-957.597106933594	-275.8439331054688	1260.890380859375	-1065.876586914063	-233.4308013916016	1258.836791992188	-1039.456787109375	-229.5709686279297	1209.199951171875	-1074.5576171875	-171.3174285888672	1145.306640625	-1066.591430664063	-237.3588409423829	1101.896240234375	-1022.302490234375	-11.68386459350586	1051.234741210938	-894.5590820312502	1.599741339683533	1092.307983398438	-797.326599121094	-373.4012451171876	1436.235961914063	-643.3966674804689	-318.0922546386719	1246.6748046875	-531.8346557617189	-272.5631408691407	1241.261108398438	-549.7200317382814	-278.3198547363282	1189.8203125	-517.4701538085939	-229.9997863769532	1136.59130859375	-515.9509887695314	-270.3069152832032	1081.038330078125	-561.4351196289064	-54.47945022583009	1100.380859375	-728.5617065429689	-31.95423698425294	1062.506713867188	-664.6983032226564	26.14274978637696	1100.290771484375	-753.9683837890626	-270.0991821289063	984.6702880859377	-941.484313964844	-272.0523986816407	989.6409301757815	-685.8696899414064	-433.3834228515626	1044.329956054688	-818.3905029296877	-436.603729248047	1012.581176757813	-845.4609375000002	-437.905975341797	1013.425231933594	-788.2434692382815	-299.1092529296876	740.4603881835939	-1018.616455078125	-260.5408325195313	664.9413452148439	-1021.434875488281	-215.0230712890626	673.8342895507814	-1005.416259765625	-282.4615478515626	609.2603149414064	-1014.1259765625	-283.4714660644532	501.0950622558595	-1009.150939941406	-239.8916015625001	483.9176025390626	-887.0782470703127	-238.7401580810547	373.7278442382813	-979.712341308594	-304.4626159667969	342.7033691406251	-1028.360961914063	-264.2687683105469	330.9041137695313	-1010.018859863281	-277.6310729980469	251.7032623291016	-981.376892089844	-372.0210876464844	123.7760543823242	-999.1665039062502	-338.9297485351563	131.1327056884766	-919.284362792969	-429.0823059082032	94.9024124145508	-956.0095825195315	-223.702377319336	50.67352676391603	-935.3469238281252	-221.0192413330079	54.84743881225587	-984.361022949219	-262.9683227539063	43.37408828735352	-1035.740234375	-327.5378723144532	779.8443603515627	-633.4341430664064	-288.0300598144532	728.5409545898439	-641.0426025390626	-257.1568603515626	736.6271972656251	-651.1655273437501	-313.1868896484376	647.6585083007814	-656.2630615234376	-326.1175842285157	495.2584838867189	-697.3764648437501	-286.3968200683594	497.3329467773439	-820.2364501953127	-283.8672180175782	350.2645874023438	-773.6962890625002	-342.8710021972657	272.2712097167969	-724.9334716796876	-304.9959411621094	267.1968383789063	-755.5656127929689	-318.3052978515626	227.0358886718751	-796.8013305664065	-398.8699340820314	111.8592224121094	-774.3533325195315	-362.0571899414063	138.7230682373047	-850.6336669921877	-448.9966430664064	94.0702362060547	-835.7204589843752	-242.9784698486329	59.40162277221681	-823.638854980469	-249.4752655029297	55.10993957519533	-781.6496582031252	-291.9269409179688	33.71595764160157	-734.6919555664064	nan	nan	nan	nan	nan	nan	
3	0.01	-287.4229736328126	1708.973754882813	-785.1006469726565	-427.6317138671876	1593.327758789063	-867.0432739257815	-469.8421936035157	1465.682250976563	-811.3273925781252	-451.5034790039064	1141.277954101563	-814.6773071289065	-323.6356506347657	1416.147094726563	-799.5237426757815	-349.1362915039063	1445.12451171875	-957.4302368164065	-275.7715759277344	1260.878295898438	-1065.724853515625	-233.3880004882813	1258.742553710938	-1039.355834960938	-229.5999450683594	1209.185546875	-1074.494506835938	-171.3841247558594	1145.235229492188	-1066.57470703125	-237.4594421386719	1101.796875	-1022.330261230469	-11.76242733001709	1051.046752929688	-894.5930175781252	1.566620349884034	1091.221313476563	-795.9425048828127	-372.9949645996094	1436.081665039063	-643.1301879882814	-318.0985717773438	1246.500854492188	-531.6913452148439	-272.6071777343751	1241.004028320313	-549.6118164062501	-278.3761596679688	1189.569580078125	-517.3604736328126	-230.1101074218751	1136.333984375	-515.9080200195314	-270.5061645507813	1080.80029296875	-561.4208374023439	-54.65775299072267	1100.123046875	-728.4751586914064	-32.11050415039063	1062.184692382813	-664.6395263671876	25.95948791503907	1099.935424804688	-753.9329833984376	-269.9698181152344	984.682800292969	-941.3937988281252	-271.9623107910157	989.5447998046877	-685.7750854492189	-433.2717895507814	1044.324340820313	-818.3511962890627	-436.4620056152345	1012.604370117188	-845.435241699219	-437.8452148437501	1013.440856933594	-788.1870117187502	-299.1234130859376	740.5620727539064	-1018.594604492188	-260.5539550781251	664.9756469726564	-1021.403259277344	-215.1033172607422	673.8200683593751	-1005.393493652344	-282.5137329101563	609.3146362304689	-1014.068542480469	-283.6785278320313	501.1121826171876	-1009.146789550781	-240.0629882812501	483.9644470214845	-887.063171386719	-238.8744354248047	373.7456359863282	-979.7352294921877	-304.5192871093751	342.7625427246094	-1028.34423828125	-264.3979187011719	330.9244384765626	-1010.011352539063	-277.6741333007813	251.7304840087891	-981.401794433594	-372.1444091796876	123.7722244262696	-999.2037353515627	-338.9295654296876	131.1624755859375	-919.304382324219	-429.0867309570314	94.87111663818361	-956.026306152344	-223.7207031250001	50.66082000732423	-935.393249511719	-221.0273590087891	54.85080718994142	-984.364685058594	-263.0209960937501	43.35841751098634	-1035.767456054688	-327.3731689453126	779.7229003906252	-633.4428710937501	-287.8912963867188	728.4234619140626	-640.7899780273439	-256.9563903808594	736.5651245117189	-651.0433959960939	-312.9854431152344	647.5504760742189	-656.2330932617189	-325.8084716796876	495.1699218750001	-697.2631835937501	-286.1384277343751	497.2107238769532	-820.171325683594	-283.6473693847657	350.2129516601563	-773.6950683593752	-342.7176208496094	272.2343444824219	-724.9157104492189	-304.8791809082032	267.1248474121094	-755.6267700195314	-318.1750793457032	227.0247344970704	-796.8032226562502	-398.8446044921876	111.8703689575196	-774.3066406250002	-362.1207275390626	138.7464141845703	-850.7491455078127	-448.9769592285157	94.06571197509767	-835.7669677734377	-242.9941711425782	59.31631469726564	-823.7014770507815	-249.4579010009766	55.0824317932129	-781.6583251953127	-291.9007263183594	33.71111679077149	-734.7304077148439	nan	nan	nan	nan	nan	nan	
4	0.015	-287.3678894042969	1709.041748046875	-784.9431152343752	-427.5375061035157	1593.249389648438	-866.886657714844	-469.6476135253907	1465.66552734375	-811.2236328125002	-451.3735961914064	1141.28125	-814.5486450195315	-323.4559326171876	1416.0966796875	-799.3701171875002	-348.9356384277344	1445.14794921875	-957.2165527343752	-275.7850646972657	1260.85693359375	-1065.648559570313	-233.3030242919922	1258.70654296875	-1039.293212890625	-229.6001739501954	1209.149536132813	-1074.442016601563	-171.403060913086	1145.150024414063	-1066.522705078125	-237.5614166259766	1101.652709960938	-1022.290283203125	-11.85245037078858	1050.803833007813	-894.615905761719	0.787600636482239	1090.83642578125	-796.2307128906252	-372.8621215820313	1436.022827148438	-642.9468383789064	-318.0762939453126	1246.309204101563	-531.5498657226564	-272.6451416015626	1240.775390625	-549.4605712890626	-278.4536743164063	1189.3720703125	-517.2932128906251	-230.2601165771485	1136.085327148438	-515.7855834960939	-270.6830444335938	1080.608154296875	-561.3956298828126	-54.80978775024415	1099.844116210938	-728.4479370117189	-32.33660888671876	1061.865478515625	-664.5867919921876	25.80651855468751	1099.576538085938	-753.8221435546876	-269.8074951171876	984.693054199219	-941.361999511719	-271.8858337402344	989.4312133789065	-685.6806030273439	-433.8512573242189	1044.762573242188	-818.086120605469	-436.3472595214845	1012.624145507813	-845.323669433594	-437.7342834472657	1013.443786621094	-788.0606079101565	-299.0312194824219	740.6179809570314	-1018.408813476563	-260.5963134765626	664.9887084960939	-1021.359130859375	-215.0949859619141	673.8129882812501	-1005.344360351563	-282.5540466308594	609.3564453125001	-1014.054382324219	-283.7322998046876	501.1421203613282	-1009.142883300781	-240.2299499511719	483.9334411621095	-887.0444946289065	-238.9239959716797	373.7688598632813	-979.7407226562502	-304.6377258300782	342.8101501464844	-1028.35498046875	-264.4526367187501	330.9397277832032	-1010.04150390625	-277.7026062011719	251.7438049316407	-981.4055175781252	-372.1377868652344	123.7910995483399	-999.2070922851565	-338.9292297363282	131.1732788085938	-919.3589477539065	-429.1072082519532	94.86476898193361	-956.0872192382815	-223.6949157714844	50.68346405029298	-935.4425048828127	-221.0242919921876	54.83051681518556	-984.3885498046877	-263.0207519531251	43.33880615234376	-1035.780639648438	-327.2509460449219	779.6317138671877	-633.3562011718751	-287.7265930175782	728.4846801757814	-640.6973266601564	-256.8122558593751	736.4730224609376	-650.9401245117189	-312.8114624023438	647.4686889648439	-656.1384887695314	-325.5150146484376	495.0832824707032	-697.1886596679689	-285.9493713378907	497.1707458496095	-820.1066894531252	-283.4475097656251	350.0935058593751	-773.667175292969	-342.5385742187501	272.2113342285157	-724.9421386718751	-304.6737976074219	267.0087280273438	-755.6300659179689	-318.1011962890626	226.9708099365235	-796.820983886719	-398.8300781250001	111.8888320922852	-774.3059082031252	-361.9451293945313	138.7483673095703	-850.718688964844	-448.9304199218751	94.08204650878908	-835.8007812500002	-242.9862365722657	59.30520629882814	-823.7001953125002	-249.4447784423829	55.0841522216797	-781.6612548828127	-291.8783264160157	33.7351417541504	-734.7318115234376	nan	nan	nan	nan	nan	nan	
